<?xml version="1.0" encoding="UTF-8"?>
<svg width="41px" height="20px" viewBox="0 0 41 20" version="1.1" xmlns="http://www.w3.org/2000/svg"
     xmlns:xlink="http://www.w3.org/1999/xlink">
    <g id="icone/instance" stroke="none" stroke-width="1" fill="none" fill-rule="evenodd">
        <path d="M26.5555556,17.7777778 L26.5555556,9.86666667 L27.6666667,10.9777778 L27.6666667,17.7777778 C27.6666667,18.3914275 27.1692053,18.8888889 26.5555556,18.8888889 L22.6666667,18.8888889 L22.6666667,13.3333333 L19.3333333,13.3333333 L19.3333333,18.8888889 L15.4444444,18.8888889 C14.8307947,18.8888889 14.3333333,18.3914275 14.3333333,17.7777778 L14.3333333,11.1111111 L15.4444444,10 L15.4444444,17.7777778 L18.2222222,17.7777778 L18.2222222,12.2222222 L23.7777778,12.2222222 L23.7777778,17.7777778 L26.5555556,17.7777778 Z M29.7277778,9.60555556 L29.7222222,9.61111111 C29.9109871,9.83153349 29.8982957,10.1601079 29.6930907,10.3653129 C29.4878857,10.5705179 29.1593113,10.5832093 28.9388889,10.3944444 L21,2.45 L13.0611111,10.3888889 C12.8406887,10.5776538 12.5121143,10.5649624 12.3069093,10.3597573 C12.1017043,10.1545523 12.0890129,9.82597793 12.2777778,9.60555556 L20.6111111,1.27222222 C20.8277986,1.05682023 21.177757,1.05682023 21.3944444,1.27222222 L29.7277778,9.60555556 Z"
              id="Mask" fill="#000000" fill-rule="nonzero"></path>
    </g>
</svg>
